<?xml version="1.0" encoding="utf-8"?>
<!-- Generator: Adobe Illustrator 23.0.1, SVG Export Plug-In . SVG Version: 6.00 Build 0)  -->
<svg version="1.1" id="Layer_1" xmlns="http://www.w3.org/2000/svg" xmlns:xlink="http://www.w3.org/1999/xlink" x="0px" y="0px"
	 viewBox="0 0 10 10" style="enable-background:new 0 0 10 10;" xml:space="preserve">
<style type="text/css">
	.st0{fill:#737983;}
</style>
<path class="st0" d="M0,5.3l0-0.6c0-0.2,0.1-0.3,0.3-0.3h9.4c0.2,0,0.3,0.1,0.3,0.3v0.6c0,0.2-0.1,0.3-0.3,0.3H0.3
	C0.1,5.6,0,5.5,0,5.3z"/>
<path class="st0" d="M5.3,10H4.7c-0.2,0-0.3-0.1-0.3-0.3V0.3C4.4,0.1,4.5,0,4.7,0l0.6,0c0.2,0,0.3,0.1,0.3,0.3v9.4
	C5.6,9.9,5.5,10,5.3,10z"/>
</svg>
